<svg width="77" height="48" viewBox="0 0 77 48" fill="none" xmlns="http://www.w3.org/2000/svg">
<g clip-path="url(#clip0_201_1262)">
<path d="M70.2936 47.9999H0L6.37266 27.0747H76.6663L70.2936 47.9999Z" fill="#00AEC6"/>
<path d="M29.9874 19.2333V6.146H35.7156V10.4807H38.3511V6.146H44.0757V19.2333H38.3511V14.8986H35.7156V19.2333H29.9874Z" fill="#2C384A"/>
<path d="M58.3294 11.9558L60.5076 6.146H54.9199L53.1809 10.4807H52.1584V6.146H46.4302V19.2333H52.1584V14.8986H53.5265L55.2655 19.2333H60.9829L58.3294 11.9558Z" fill="#2C384A"/>
<path d="M71.1468 7.59206C70.4499 7.56913 69.7562 7.6956 69.1118 7.96303C68.4674 8.23047 67.8871 8.63273 67.4097 9.14301C67.4536 8.54964 67.6588 7.97975 68.0029 7.49531C68.3469 7.01087 68.8167 6.63045 69.3611 6.39541C71.2837 5.57836 73.5051 6.14957 75.0784 4.76492V0C73.8424 0.440298 72.5569 0.725653 71.2513 0.849588C69.3174 1.05476 67.4512 1.68023 65.7823 2.68253C63.4529 4.15033 61.8003 6.57256 61.8003 11.4676C61.8003 17.8594 65.4835 19.6562 69.2747 19.6562C73.0658 19.6562 76.3458 17.751 76.3458 13.5645C76.3458 9.54069 73.9623 7.60652 71.1468 7.60652V7.59206ZM69.0874 15.2492C67.7049 15.2492 67.3809 14.1646 67.3809 13.3186C67.3809 12.4727 67.7049 11.4134 69.0874 11.4134C70.47 11.4134 70.7652 12.4727 70.7652 13.3186C70.7652 14.1646 70.4412 15.2492 69.0874 15.2492Z" fill="#2C384A"/>
<path d="M28.0001 12.6898C28.0001 9.47219 26.56 6.43174 23.2656 5.82076L23.0424 5.7846C22.848 5.75568 22.6499 5.73399 22.4447 5.72314C22.3079 5.72314 22.1711 5.72314 22.0307 5.72314C21.9083 5.72314 21.7894 5.72314 21.6706 5.72314C20.7172 5.76653 19.7941 6.07301 19.0028 6.60889C18.5407 6.91687 18.1289 7.29494 17.7822 7.72963L17.2818 6.14613H12.7417V24.4612H18.4699V18.4381C18.9131 18.8302 19.4279 19.1323 19.9857 19.3275C20.6367 19.5714 21.3289 19.6856 22.0235 19.6637C26.1783 19.6637 27.9965 16.2834 27.9965 12.6862L28.0001 12.6898ZM20.1261 15.0614C19.7896 15.0658 19.4578 14.9829 19.1626 14.8208C18.8674 14.6586 18.6189 14.4227 18.4411 14.1359V11.2437C18.6214 10.9592 18.8705 10.7252 19.1651 10.5634C19.4597 10.4016 19.7903 10.3172 20.1261 10.3182C21.5086 10.3182 22.1063 11.5184 22.1063 12.6898C22.1062 12.8361 22.0966 12.9822 22.0775 13.1272C21.9443 14.1431 21.3358 15.0614 20.1261 15.0614Z" fill="#2C384A"/>
</g>
<defs>
<clipPath id="clip0_201_1262">
<rect width="76.6663" height="48" fill="white"/>
</clipPath>
</defs>
</svg>
