<svg width="213" height="200" viewBox="0 0 213 200" fill="none" xmlns="http://www.w3.org/2000/svg">
<path d="M104.762 200H0L95.2381 0L200 0L104.762 200Z" fill="#00AEC6"/>
<g filter="url(#filter0_d_12_8)">
<path d="M67.8477 135H47.6094L28.7031 109.176H24.6641V135H8.16406V71.0195H24.6641V97.1016C26.0104 97.0443 27.1276 96.9154 28.0156 96.7148C28.9036 96.4857 29.7201 96.099 30.4648 95.5547C31.2383 94.9818 32.069 94.1367 32.957 93.0195C33.8451 91.8737 34.776 90.4701 35.75 88.8086C36.3516 87.7773 37.0247 86.5599 37.7695 85.1562C38.543 83.724 39.1875 82.5495 39.7031 81.6328C41.9089 77.7656 44.2292 75.0156 46.6641 73.3828C49.099 71.7214 52.7799 70.8906 57.707 70.8906C59.168 70.8906 60.4714 70.9193 61.6172 70.9766C62.763 71.0052 63.6081 71.0195 64.1523 71.0195V84.8984H59.3828C57.0339 84.8984 55.2005 85.5 53.8828 86.7031C52.5938 87.9062 51.1615 90.026 49.5859 93.0625C48.0104 96.0703 46.7214 98.1901 45.7188 99.4219C44.7161 100.625 43.7422 101.484 42.7969 102L67.8477 135ZM135.633 103.031C135.633 113.229 132.712 121.336 126.868 127.352C121.024 133.339 112.946 136.332 102.633 136.332C92.3496 136.332 84.2858 133.339 78.442 127.352C72.5983 121.336 69.6764 113.229 69.6764 103.031C69.6764 92.7474 72.5983 84.6263 78.442 78.668C84.2858 72.681 92.3496 69.6875 102.633 69.6875C112.889 69.6875 120.952 72.681 126.825 78.668C132.697 84.6263 135.633 92.7474 135.633 103.031ZM113.762 119.23C115.367 117.283 116.555 114.991 117.329 112.355C118.102 109.691 118.489 106.569 118.489 102.988C118.489 99.1497 118.045 95.8841 117.157 93.1914C116.269 90.4987 115.109 88.3216 113.676 86.6602C112.215 84.9414 110.525 83.6953 108.606 82.9219C106.715 82.1484 104.739 81.7617 102.676 81.7617C100.585 81.7617 98.6087 82.1341 96.7467 82.8789C94.9134 83.6237 93.2233 84.8555 91.6764 86.5742C90.2441 88.1784 89.0696 90.3984 88.153 93.2344C87.2649 96.0417 86.8209 99.3073 86.8209 103.031C86.8209 106.841 87.2506 110.092 88.11 112.785C88.998 115.449 90.1582 117.626 91.5905 119.316C93.0228 121.007 94.6985 122.253 96.6178 123.055C98.5371 123.857 100.557 124.258 102.676 124.258C104.796 124.258 106.816 123.857 108.735 123.055C110.654 122.224 112.33 120.949 113.762 119.23ZM208.447 149.695H193.279V134.785H154.435V149.695H139.267V122.582H144.122C147.445 115.621 149.98 107.772 151.728 99.0352C153.504 90.2982 154.392 80.9596 154.392 71.0195H202.13V122.582H208.447V149.695ZM185.63 122.582V83.3945H169.646C169.102 91.1862 167.956 98.3906 166.208 105.008C164.49 111.596 162.398 117.454 159.935 122.582H185.63Z" fill="black"/>
</g>
<defs>
<filter id="filter0_d_12_8" x="4.16406" y="69.6875" width="208.283" height="88.0078" filterUnits="userSpaceOnUse" color-interpolation-filters="sRGB">
<feFlood flood-opacity="0" result="BackgroundImageFix"/>
<feColorMatrix in="SourceAlpha" type="matrix" values="0 0 0 0 0 0 0 0 0 0 0 0 0 0 0 0 0 0 127 0" result="hardAlpha"/>
<feOffset dy="4"/>
<feGaussianBlur stdDeviation="2"/>
<feComposite in2="hardAlpha" operator="out"/>
<feColorMatrix type="matrix" values="0 0 0 0 0 0 0 0 0 0 0 0 0 0 0 0 0 0 0.25 0"/>
<feBlend mode="normal" in2="BackgroundImageFix" result="effect1_dropShadow_12_8"/>
<feBlend mode="normal" in="SourceGraphic" in2="effect1_dropShadow_12_8" result="shape"/>
</filter>
</defs>
</svg>
