<svg width="264" height="244" viewBox="0 0 264 244" fill="none" xmlns="http://www.w3.org/2000/svg">
<path d="M131.987 244H4L120.352 0L248.34 0L131.987 244Z" fill="#00AEC6"/>
<g filter="url(#filter0_d_67_129)">
<path d="M68.4961 92.0195L45.207 143.195C43.8607 146.146 42.3138 148.523 40.5664 150.328C38.819 152.133 37.0143 153.465 35.1523 154.324C33.2904 155.212 31.4427 155.785 29.6094 156.043C27.8047 156.301 26 156.43 24.1953 156.43C22.1901 156.43 19.8125 156.372 17.0625 156.258C14.3125 156.172 12.4935 156.086 11.6055 156V142.035H12.5938C13.1953 142.207 14.2552 142.393 15.7734 142.594C17.2917 142.766 18.7956 142.852 20.2852 142.852C23.1211 142.852 25.4128 142.579 27.1602 142.035C28.9362 141.491 30.0247 140.775 30.4258 139.887L4.42969 92.0195H22.3477L38.2461 122.355L51.3516 92.0195H68.4961ZM134.09 156H113.852L94.9459 130.176H90.9069V156H74.4069V92.0195H90.9069V118.102C92.2532 118.044 93.3704 117.915 94.2584 117.715C95.1465 117.486 95.9629 117.099 96.7077 116.555C97.4811 115.982 98.3118 115.137 99.1998 114.02C100.088 112.874 101.019 111.47 101.993 109.809C102.594 108.777 103.268 107.56 104.012 106.156C104.786 104.724 105.43 103.549 105.946 102.633C108.152 98.7656 110.472 96.0156 112.907 94.3828C115.342 92.7214 119.023 91.8906 123.95 91.8906C125.411 91.8906 126.714 91.9193 127.86 91.9766C129.006 92.0052 129.851 92.0195 130.395 92.0195V105.898H125.626C123.277 105.898 121.443 106.5 120.126 107.703C118.837 108.906 117.404 111.026 115.829 114.062C114.253 117.07 112.964 119.19 111.962 120.422C110.959 121.625 109.985 122.484 109.04 123L134.09 156ZM183.443 99.4102C186.307 102.189 188.499 105.555 190.017 109.508C191.564 113.461 192.337 117.987 192.337 123.086C192.337 128.557 191.492 133.484 189.802 137.867C188.112 142.221 185.792 145.788 182.841 148.566C179.891 151.345 176.338 153.493 172.185 155.012C168.06 156.501 163.448 157.246 158.349 157.246C155.628 157.246 153.092 157.06 150.743 156.688C148.423 156.344 146.332 155.914 144.47 155.398C142.493 154.854 140.703 154.296 139.099 153.723C137.495 153.121 136.277 152.648 135.447 152.305V137.824H137.036C137.896 138.54 138.941 139.342 140.173 140.23C141.405 141.09 142.751 141.878 144.212 142.594C145.96 143.424 147.822 144.126 149.798 144.699C151.775 145.243 154.124 145.516 156.845 145.516C158.764 145.516 160.812 145.258 162.99 144.742C165.167 144.198 167.115 143.296 168.833 142.035C170.638 140.746 172.185 139.027 173.474 136.879C174.792 134.73 175.622 131.995 175.966 128.672H147.478V116.469H175.579C175.121 113.891 174.305 111.728 173.13 109.98C171.956 108.233 170.552 106.801 168.919 105.684C167.286 104.566 165.496 103.764 163.548 103.277C161.629 102.762 159.71 102.504 157.79 102.504C155.413 102.504 153.207 102.79 151.173 103.363C149.168 103.908 147.277 104.609 145.501 105.469C143.897 106.271 142.465 107.13 141.204 108.047C139.973 108.964 138.941 109.737 138.111 110.367H136.306V95.7578C137.881 95.0703 139.357 94.4831 140.732 93.9961C142.107 93.4805 143.883 92.9362 146.06 92.3633C147.807 91.9049 149.87 91.5326 152.247 91.2461C154.625 90.931 157.06 90.7734 159.552 90.7734C164.479 90.7734 168.962 91.5039 173.001 92.9648C177.04 94.4258 180.521 96.5742 183.443 99.4102ZM259.693 156H243.193V104.395H218.83V156H202.33V92.0195H259.693V156Z" fill="black"/>
</g>
<defs>
<filter id="filter0_d_67_129" x="0.429688" y="90.7734" width="263.264" height="74.4727" filterUnits="userSpaceOnUse" color-interpolation-filters="sRGB">
<feFlood flood-opacity="0" result="BackgroundImageFix"/>
<feColorMatrix in="SourceAlpha" type="matrix" values="0 0 0 0 0 0 0 0 0 0 0 0 0 0 0 0 0 0 127 0" result="hardAlpha"/>
<feOffset dy="4"/>
<feGaussianBlur stdDeviation="2"/>
<feComposite in2="hardAlpha" operator="out"/>
<feColorMatrix type="matrix" values="0 0 0 0 0 0 0 0 0 0 0 0 0 0 0 0 0 0 0.25 0"/>
<feBlend mode="normal" in2="BackgroundImageFix" result="effect1_dropShadow_67_129"/>
<feBlend mode="normal" in="SourceGraphic" in2="effect1_dropShadow_67_129" result="shape"/>
</filter>
</defs>
</svg>
